<svg width="286" height="111" viewBox="0 0 286 111" fill="none" xmlns="http://www.w3.org/2000/svg">
<path opacity="0.25" d="M0.787053 109V9.47977H58.5168V21.5347H16.5924V53.0115H47.9353V65.0664H16.5924V109H0.787053ZM71.8202 109V0.103711H87.3576V109H71.8202ZM138.845 110.072C132.773 110.072 127.616 109 123.375 106.857C119.133 104.714 115.695 101.789 113.061 98.0836C110.427 94.3778 108.507 90.1363 107.302 85.3589C106.141 80.5369 105.583 75.4694 105.627 70.1563C105.761 62.1643 107.346 55.4448 110.382 49.9978C113.418 44.5507 117.526 40.4431 122.705 37.6749C127.884 34.8621 133.711 33.4557 140.185 33.4557C148.311 33.4557 154.807 35.3086 159.674 39.0144C164.585 42.6755 168.112 47.5421 170.255 53.6142C172.443 59.6417 173.492 66.1826 173.403 73.237C173.269 81.229 171.684 87.9708 168.648 93.4625C165.656 98.9096 161.571 103.04 156.392 105.852C151.258 108.665 145.409 110.072 138.845 110.072ZM139.247 99.1551C145.364 99.2444 149.963 96.9451 153.043 92.257C156.169 87.5243 157.731 80.9834 157.731 72.6343C157.731 67.4551 157.106 62.7671 155.856 58.5702C154.606 54.3286 152.642 50.9354 149.963 48.3904C147.329 45.8455 143.935 44.5507 139.783 44.5061C133.711 44.3721 129.134 46.5599 126.054 51.0693C122.973 55.5788 121.433 62.0081 121.433 70.3572C121.433 75.5364 122.058 80.2914 123.308 84.6222C124.558 88.9531 126.5 92.4356 129.134 95.0698C131.769 97.7041 135.14 99.0658 139.247 99.1551ZM202.384 110.072L179.613 34.3933H195.084L206.67 77.5902L212.095 101.7H207.943L213.032 77.7241L225.154 34.3933H240.29L252.412 77.5902L257.569 101.432H253.684L258.975 78.059L270.093 34.3933H285.161L262.324 110.072H248.193L235.066 62.9233L230.981 42.8318H234.196L229.842 62.9233L216.984 110.072H202.384Z" fill="#DAE2C2"/>
</svg>
